<svg xmlns="http://www.w3.org/2000/svg" width="48" height="48" version="1.0" viewBox="0 0 36 36"><defs><clipPath id="a"><path d="M9.04.918H27.28v32.836H9.04Zm0 0"/></clipPath></defs><g clip-path="url(#a)"><path fill="#100f0d" d="M26.273 30.973c0 .988-.832 1.793-1.847 1.793H11.902c-1.02 0-1.847-.805-1.847-1.793V3.703c0-.992.828-1.797 1.847-1.797h1.418l.274.657c.199.472.668.777 1.195.777h6.75c.523 0 .992-.305 1.191-.777l.278-.657h1.418c1.015 0 1.847.805 1.847 1.797ZM24.426.922H11.902c-1.578 0-2.863 1.246-2.863 2.781v27.27c0 1.53 1.285 2.777 2.863 2.777h12.524c1.578 0 2.86-1.246 2.86-2.777V3.703c0-1.535-1.282-2.781-2.86-2.781"/></g></svg>